{"title":"Cold Blood","uid":6797397,"size":3894639818,"categoryP":"video","categoryS":"tv_shows","magnet":"?xt=urn:btih:e3eaf00c42dbabd368683d765043c76cac7f1b79&amp;dn=Cold+Blood&amp;tr=udp%3A%2F%2Ftracker.openbittorrent.com%3A80&amp;tr=udp%3A%2F%2Fopen.demonii.com%3A1337&amp;tr=udp%3A%2F%2Ftracker.coppersurfer.tk%3A6969&amp;tr=udp%3A%2F%2Fexodus.desync.com%3A6969","seeders":0,"leechers":1,"uploader":"roaduck","files":5,"time":1320510588,"description":"Cold Blood is a television series produced by ITV between 2005 and 2008. Three series of the show have been broadcast.\n\nThe program stars Matthew Kelly as Brian Wicklow, a former serial killer who assists the police with investigations. Also starring is John Hannah, as Jake Osborne; and Jemma Redgrave as Detective Sergeant Granger.\n\nIt has good reviews and is of reasonable picture and sound quality.Also it is quite rare to find on the internet.\n\n\n &lt;a href=&quot;\nhttp://www.imdb.com/title/tt1148750/&quot; rel=&quot;nofollow&quot; target=&quot;_NEW&quot;&gt;\nhttp://www.imdb.com/title/tt1148750/&lt;/a&gt;\n\n &lt;a href=&quot;\nhttp://www.itv.com/drama/copsandcrime/coldblood/abouttheshow.html&quot; rel=&quot;nofollow&quot; target=&quot;_NEW&quot;&gt;\nhttp://www.itv.com/drama/copsandcrime/coldblood/abouttheshow.html&lt;/a&gt;\n\n\nFile Info:\n\nGeneral\nComplete name                            : P:\\VIDEOS\\Cold Blood\\Cold Blood 3-1.avi\nFormat                                   : DivX\nFormat/Info                              : Hack of AVI\nFile size                                : 896 MiB\nDuration                                 : 1h 7mn\nOverall bit rate                         : 1 862 Kbps\n\nVideo\nID                                       : 0\nFormat                                   : MPEG-4 Visual\nFormat settings, BVOP                    : 1\nFormat settings, QPel                    : No\nFormat settings, GMC                     : No warppoints\nFormat settings, Matrix                  : Default (H.263)\nMuxing mode                              : Packed bitstream\nCodec ID                                 : DX50\nCodec ID/Hint                            : DivX 5\nDuration                                 : 1h 7mn\nBit rate                                 : 1 597 Kbps\nWidth                                    : 720 pixels\nHeight                                   : 576 pixels\nDisplay aspect ratio                     : 16:9\nFrame rate                               : 25.000 fps\nStandard                                 : PAL\nColor space                              : YUV\nChroma subsampling                       : 4:2:0\nBit depth                                : 8 bits\nScan type                                : Progressive\nCompression mode                         : Lossy\nBits/(Pixel*Frame)                       : 0.154\nStream size                              : 768 MiB (86%)\nTitle                                    : Video \nWriting library                          : DivX 2151\n\nAudio\nID                                       : 1\nFormat                                   : MPEG Audio\nFormat version                           : Version 1\nFormat profile                           : Layer 3\nCodec ID                                 : 55\nCodec ID/Hint                            : MP3\nDuration                                 : 1h 7mn\nBit rate mode                            : Constant\nBit rate                                 : 256 Kbps\nChannel(s)                               : 2 channels\nSampling rate                            : 48.0 KHz\nCompression mode                         : Lossy\nStream size                              : 123 MiB (14%)\nAlignment                                : Split accross interleaves\nInterleave, duration                     : 40 ms (1.00 video frame)\nInterleave, preload duration             : 500 ms\nTitle                                    : Audio \n\n","torrent":{"xt":"urn:btih:e3eaf00c42dbabd368683d765043c76cac7f1b79","amp;dn":"Cold+Blood","amp;tr":["udp%3A%2F%2Ftracker.openbittorrent.com%3A80","udp%3A%2F%2Fopen.demonii.com%3A1337","udp%3A%2F%2Ftracker.coppersurfer.tk%3A6969","udp%3A%2F%2Fexodus.desync.com%3A6969"],"infoHash":"e3eaf00c42dbabd368683d765043c76cac7f1b79","infoHashBuffer":{"type":"Buffer","data":[227,234,240,12,66,219,171,211,104,104,61,118,80,67,199,108,172,127,27,121]},"announce":[],"urlList":[]}}